<?xml version="1.0" encoding="UTF-8" standalone="no"?>
<svg xmlns="http://www.w3.org/2000/svg" width="1536" height="1024" viewBox="0 0 1536 1024">
<defs>
  <linearGradient id="bg" x1="0" x2="0" y1="0" y2="1">
    <stop offset="0%" stop-color="#f6f6f7"/>
    <stop offset="100%" stop-color="#f3f4f5"/>
  </linearGradient>
  <linearGradient id="purpleHead" x1="0" x2="1">
    <stop offset="0%" stop-color="#9d8dc7"/>
    <stop offset="100%" stop-color="#aa9ad4"/>
  </linearGradient>
  <linearGradient id="greenHead" x1="0" x2="1">
    <stop offset="0%" stop-color="#8ec2aa"/>
    <stop offset="100%" stop-color="#7fbea5"/>
  </linearGradient>
  <linearGradient id="orangeHead" x1="0" x2="1">
    <stop offset="0%" stop-color="#f0b24d"/>
    <stop offset="100%" stop-color="#f3bb55"/>
  </linearGradient>
  <linearGradient id="blueHead" x1="0" x2="1">
    <stop offset="0%" stop-color="#8db2d8"/>
    <stop offset="100%" stop-color="#9fc0e2"/>
  </linearGradient>
  <linearGradient id="ringGreen" x1="0" x2="1">
    <stop offset="0%" stop-color="#76b79d"/>
    <stop offset="100%" stop-color="#8fc3af"/>
  </linearGradient>
  <linearGradient id="ringOrange" x1="0" x2="1">
    <stop offset="0%" stop-color="#f0b24d"/>
    <stop offset="100%" stop-color="#f4bf5f"/>
  </linearGradient>
  <linearGradient id="ringRed" x1="0" x2="1">
    <stop offset="0%" stop-color="#f28877"/>
    <stop offset="100%" stop-color="#ef7e6c"/>
  </linearGradient>
  <linearGradient id="ringPurple" x1="0" x2="1">
    <stop offset="0%" stop-color="#b3a4dc"/>
    <stop offset="100%" stop-color="#9685ce"/>
  </linearGradient>
  <filter id="softShadow" x="-20%" y="-20%" width="140%" height="140%">
    <feDropShadow dx="0" dy="2" stdDeviation="3" flood-opacity="0.08"/>
  </filter>
  <style>
    .title { font-family: Georgia, 'Times New Roman', serif; fill:#232b4d; }
    .subtitle { font-family: Georgia, 'Times New Roman', serif; fill:#232b4d; }
    .headtxt { font-family: Georgia, 'Times New Roman', serif; fill:white; }
    .bodytxt { font-family: Georgia, 'Times New Roman', serif; fill:#232b4d; }
    .navy { stroke:#3a5d96; fill:none; stroke-linecap:round; stroke-linejoin:round; }
    .thin { stroke-width:2.3; }
    .med { stroke-width:3.1; }
    .thick { stroke-width:4; }
  </style>
</defs>
<rect width="100%" height="100%" fill="url(#bg)"/>

<text x="768" y="78" text-anchor="middle" class="title" font-size="56">AI Agents as Closed-Loop Molecular Discovery System</text>
<text x="270" y="225" text-anchor="middle" class="subtitle" font-size="52">Agent Components</text>
<text x="1260" y="225" text-anchor="middle" class="subtitle" font-size="52">Molecular Applications</text>
<g filter="url(#softShadow)">
<rect x="80" y="258" width="353" height="236" rx="18" ry="18" fill="#f7f7f8" stroke="#d1d7e1"/>
<path d="M98,258 H415 Q433,258 433,276 V309 H80 V276 Q80,258 98,258 Z" fill="url(#purpleHead)" stroke="none"/>
</g>
<text x="256.5" y="296" text-anchor="middle" class="headtxt" font-size="36">Knowledge Agents</text>

    <g id="book" transform="translate(104,331) scale(1.0)">
      <path d="M0,78 L10,0 Q55,-12 84,18 L84,92 Q49,65 0,78 Z" fill="#5d80c4" stroke="#3a5d96" stroke-width="3"/>
      <path d="M168,78 L158,0 Q113,-12 84,18 L84,92 Q119,65 168,78 Z" fill="#7090d0" stroke="#3a5d96" stroke-width="3"/>
      <path d="M8,80 L17,6 Q54,-4 82,20 L82,86 Q47,62 8,80 Z" fill="#eff4fa" stroke="#6f8fc3" stroke-width="2"/>
      <path d="M160,80 L151,6 Q114,-4 86,20 L86,86 Q121,62 160,80 Z" fill="#eff4fa" stroke="#6f8fc3" stroke-width="2"/>
      <path d="M74,89 Q84,103 94,89" fill="none" stroke="#3a5d96" stroke-width="7" stroke-linecap="round"/>
      <path d="M84,18 L84,88" stroke="#9aa9c6" stroke-width="2"/>
      <g stroke="#4b5d7c" stroke-width="2">
        <path d="M33,22 h36"/><path d="M30,38 h40"/><path d="M30,54 h40"/><path d="M35,69 h33"/>
        <path d="M100,22 h36"/><path d="M97,38 h40"/><path d="M97,54 h40"/><path d="M102,69 h33"/>
      </g>
    </g>
    
    <g transform="translate(292,323) scale(0.82)">
      <g class="navy med">
        <line x1="30" y1="45" x2="72" y2="67"/><line x1="72" y1="67" x2="102" y2="33"/>
        <line x1="72" y1="67" x2="40" y2="103"/><line x1="72" y1="67" x2="112" y2="108"/>
        <line x1="102" y1="33" x2="143" y2="34"/><line x1="143" y1="34" x2="160" y2="75"/>
      </g>
      <circle cx="30" cy="45" r="16" fill="#d6e1f7" stroke="#3a5d96" stroke-width="3"/>
      <circle cx="72" cy="67" r="21" fill="#edf2f9" stroke="#3a5d96" stroke-width="3"/>
      <circle cx="102" cy="33" r="16" fill="#d6e1f7" stroke="#3a5d96" stroke-width="3"/>
      <circle cx="40" cy="103" r="16" fill="#d8abd8" stroke="#7a4c96" stroke-width="3"/>
      <circle cx="112" cy="108" r="16" fill="#b8d7a9" stroke="#4e8b68" stroke-width="3"/>
      <circle cx="160" cy="75" r="20" fill="#f7f7f8" stroke="#50679f" stroke-width="3"/>
      <path d="M145,54 h30 M145,75 h30 M145,96 h30" class="navy med"/>
    </g>
    
<text x="256.5" y="470" text-anchor="middle" class="bodytxt" font-size="31">Data &amp; Reasoning</text>
<g filter="url(#softShadow)">
<rect x="80" y="516" width="353" height="236" rx="18" ry="18" fill="#f7f7f8" stroke="#d1d7e1"/>
<path d="M98,516 H415 Q433,516 433,534 V567 H80 V534 Q80,516 98,516 Z" fill="url(#greenHead)" stroke="none"/>
</g>
<text x="256.5" y="554" text-anchor="middle" class="headtxt" font-size="36">Experimental Agents</text>

    <g transform="translate(108,593) scale(0.98)">
      <ellipse cx="140" cy="120" rx="115" ry="14" fill="#dfe8f4"/>
      <g class="navy med">
       <rect x="10" y="108" width="85" height="16" rx="3" fill="#98b3e4"/>
       <line x1="50" y1="108" x2="50" y2="72"/>
       <line x1="50" y1="72" x2="88" y2="18"/>
       <line x1="88" y1="18" x2="165" y2="26"/>
       <line x1="165" y1="26" x2="208" y2="34"/>
       <line x1="208" y1="34" x2="207" y2="72"/>
      </g>
      <circle cx="50" cy="72" r="10" fill="#f5f7fb" stroke="#3a5d96" stroke-width="3"/>
      <circle cx="88" cy="18" r="15" fill="#f5f7fb" stroke="#3a5d96" stroke-width="3"/>
      <circle cx="165" cy="26" r="15" fill="#f5f7fb" stroke="#3a5d96" stroke-width="3"/>
      <path d="M206,72 h22 v18 h-22" fill="#f6e0a2" stroke="#4f699d" stroke-width="3"/>
      <g fill="#f0b24d">
        <circle cx="106" cy="59" r="10"/><circle cx="172" cy="74" r="8"/>
      </g>
      <path d="M206,74 l14,20" class="navy thin"/>
      <g transform="translate(152,90)">
        <path d="M0,0 h35 l-4,26 h-27 z" fill="#f8e7ba" stroke="#e19b3d" stroke-width="3"/>
        <path d="M-4,-8 h42" stroke="#e19b3d" stroke-width="5" stroke-linecap="round"/>
      </g>
      <g transform="translate(190,49)">
        <rect x="0" y="0" width="81" height="54" rx="5" fill="#edf2fb" stroke="#4f699d" stroke-width="3"/>
        <g fill="#9bb2e8"><rect x="8" y="10" width="18" height="14" rx="2"/><rect x="31" y="10" width="18" height="14" rx="2"/><rect x="54" y="10" width="18" height="14" rx="2"/>
        <rect x="8" y="30" width="18" height="14" rx="2"/><rect x="31" y="30" width="18" height="14" rx="2"/><rect x="54" y="30" width="18" height="14" rx="2"/></g>
      </g>
      <g transform="translate(208,-8)">
        <rect x="0" y="0" width="18" height="36" rx="8" fill="#eef7fc" stroke="#afd2e6" stroke-width="3"/>
        <rect x="28" y="0" width="18" height="36" rx="8" fill="#eef7fc" stroke="#afd2e6" stroke-width="3"/>
      </g>
    </g>
    
<text x="256.5" y="728" text-anchor="middle" class="bodytxt" font-size="31">Automated Labs</text>
<g filter="url(#softShadow)">
<rect x="80" y="774" width="353" height="180" rx="18" ry="18" fill="#f7f7f8" stroke="#d1d7e1"/>
<path d="M98,774 H415 Q433,774 433,792 V825 H80 V792 Q80,774 98,774 Z" fill="url(#orangeHead)" stroke="none"/>
</g>
<text x="256.5" y="812" text-anchor="middle" class="headtxt" font-size="36">Decision Agents</text>

    <g transform="translate(106,838) scale(0.9)">
      <ellipse cx="110" cy="82" rx="96" ry="12" fill="#dfe8f4"/>
      <g class="navy med">
        <rect x="8" y="50" width="36" height="36" rx="3" fill="#9bb2e8"/>
        <rect x="78" y="0" width="36" height="36" rx="3" fill="#f6d08b" stroke="#d38f34"/>
        <rect x="148" y="25" width="36" height="36" rx="3" fill="#d8ddf5"/>
        <line x1="44" y1="68" x2="96" y2="68"/><line x1="96" y1="36" x2="96" y2="68"/>
        <line x1="96" y1="36" x2="148" y2="36"/>
        <line x1="96" y1="68" x2="148" y2="68"/>
      </g>
      <circle cx="148" cy="76" r="14" fill="#cfe0ff" stroke="#4f699d" stroke-width="3"/>
      <g transform="translate(230,12)">
        <circle cx="36" cy="36" r="36" fill="none" stroke="#4d866d" stroke-width="4"/>
        <circle cx="36" cy="36" r="20" fill="none" stroke="#a7b8c8" stroke-width="3"/>
        <circle cx="36" cy="36" r="8" fill="#f6d08b" stroke="#d38f34" stroke-width="2"/>
        <path d="M36,36 H112" stroke="#4d866d" stroke-width="5"/>
        <path d="M95,20 l17,16 l-17,16" fill="none" stroke="#4d866d" stroke-width="5"/>
      </g>
    </g>
    
<text x="256.5" y="930" text-anchor="middle" class="bodytxt" font-size="31">Planning &amp; Optimization</text>
<g filter="url(#softShadow)">
<rect x="1103" y="258" width="381" height="236" rx="18" ry="18" fill="#f7f7f8" stroke="#d1d7e1"/>
<path d="M1121,258 H1466 Q1484,258 1484,276 V309 H1103 V276 Q1103,258 1121,258 Z" fill="url(#purpleHead)" stroke="none"/>
</g>
<text x="1293.5" y="296" text-anchor="middle" class="headtxt" font-size="36">Drug Discovery</text>

    <g transform="translate(1144,337) scale(1.0)">
      <g class="navy med">
        <path d="M0,24 q0,-16 16,-16 h52 q16,0 16,16 v56 q0,16 -16,16 h-52 q-16,0 -16,-16 z" fill="#f7f7fb"/>
        <path d="M8,44 h45" />
        <path d="M32,8 h20" />
      </g>
      <rect x="8" y="53" width="33" height="18" rx="4" fill="#f6d08b"/>
      <path d="M0,77 q14,8 28,0 q14,-8 28,0 q14,8 28,0" fill="none" stroke="#7a4c96" stroke-width="3"/>
      <g transform="translate(84,26) rotate(-8)">
       <rect x="0" y="0" width="98" height="48" rx="24" fill="#d9e2f7" stroke="#4e67a0" stroke-width="3"/>
       <path d="M49,0 a24,24 0 0 1 0,48" fill="#90a9df" stroke="#4e67a0" stroke-width="3"/>
       <circle cx="25" cy="20" r="4" fill="#eef4fc"/>
      </g>
    </g>
    
    <g transform="translate(1319,333) scale(0.82)">
      <g class="navy med">
        <line x1="30" y1="45" x2="72" y2="67"/><line x1="72" y1="67" x2="102" y2="33"/>
        <line x1="72" y1="67" x2="40" y2="103"/><line x1="72" y1="67" x2="112" y2="108"/>
        <line x1="102" y1="33" x2="143" y2="34"/><line x1="143" y1="34" x2="160" y2="75"/>
      </g>
      <circle cx="30" cy="45" r="16" fill="#d6e1f7" stroke="#3a5d96" stroke-width="3"/>
      <circle cx="72" cy="67" r="21" fill="#edf2f9" stroke="#3a5d96" stroke-width="3"/>
      <circle cx="102" cy="33" r="16" fill="#d6e1f7" stroke="#3a5d96" stroke-width="3"/>
      <circle cx="40" cy="103" r="16" fill="#d8abd8" stroke="#7a4c96" stroke-width="3"/>
      <circle cx="112" cy="108" r="16" fill="#b8d7a9" stroke="#4e8b68" stroke-width="3"/>
      <circle cx="160" cy="75" r="20" fill="#f7f7f8" stroke="#50679f" stroke-width="3"/>
      <path d="M145,54 h30 M145,75 h30 M145,96 h30" class="navy med"/>
    </g>
    
<text x="1293.5" y="470" text-anchor="middle" class="bodytxt" font-size="31">New Therapeutics</text>
<g filter="url(#softShadow)">
<rect x="1103" y="516" width="381" height="236" rx="18" ry="18" fill="#f7f7f8" stroke="#d1d7e1"/>
<path d="M1121,516 H1466 Q1484,516 1484,534 V567 H1103 V534 Q1103,516 1121,516 Z" fill="url(#purpleHead)" stroke="none"/>
</g>
<text x="1293.5" y="554" text-anchor="middle" class="headtxt" font-size="36">Protein Design</text>

    <g transform="translate(1146,582) scale(0.95)">
      <g fill="none" stroke-width="4">
        <path d="M10,0 C60,0 60,46 10,46 C-25,46 -25,92 10,92 C60,92 60,138 10,138" stroke="#4d8c67"/>
        <path d="M58,0 C8,0 8,46 58,46 C93,46 93,92 58,92 C8,92 8,138 58,138" stroke="#6ba995"/>
        <path d="M20,15 h30 M8,38 h52 M8,61 h52 M20,84 h30 M20,107 h30 M8,129 h52" stroke="#d3a348"/>
      </g>
    </g>
    
    <g transform="translate(1234,577) scale(0.95)">
      <g fill="none" stroke-width="4">
        <path d="M10,0 C60,0 60,46 10,46 C-25,46 -25,92 10,92 C60,92 60,138 10,138" stroke="#4d8c67"/>
        <path d="M58,0 C8,0 8,46 58,46 C93,46 93,92 58,92 C8,92 8,138 58,138" stroke="#6ba995"/>
        <path d="M20,15 h30 M8,38 h52 M8,61 h52 M20,84 h30 M20,107 h30 M8,129 h52" stroke="#d3a348"/>
      </g>
    </g>
    
    <g transform="translate(1295,575) scale(0.85)">
      <ellipse cx="130" cy="110" rx="96" ry="14" fill="#dfe8f4"/>
      <g class="navy med">
        <line x1="16" y1="52" x2="62" y2="32"/><line x1="62" y1="32" x2="104" y2="62"/>
        <line x1="104" y1="62" x2="142" y2="30"/><line x1="142" y1="30" x2="182" y2="64"/>
        <line x1="104" y1="62" x2="104" y2="108"/><line x1="104" y1="108" x2="142" y2="113"/>
        <line x1="142" y1="113" x2="182" y2="84"/>
      </g>
      <g>
       <circle cx="16" cy="52" r="13" fill="#d2b2dc" stroke="#7a4c96" stroke-width="3"/>
       <circle cx="62" cy="32" r="13" fill="#add1ad" stroke="#4d8c67" stroke-width="3"/>
       <circle cx="104" cy="62" r="16" fill="#e9f0fb" stroke="#4e67a0" stroke-width="3"/>
       <circle cx="142" cy="30" r="15" fill="#d6dff7" stroke="#4e67a0" stroke-width="3"/>
       <circle cx="182" cy="64" r="13" fill="#d6dff7" stroke="#4e67a0" stroke-width="3"/>
       <circle cx="104" cy="108" r="11" fill="#d2b2dc" stroke="#7a4c96" stroke-width="3"/>
       <circle cx="142" cy="113" r="11" fill="#e9f0fb" stroke="#4e67a0" stroke-width="3"/>
       <circle cx="182" cy="84" r="11" fill="#f0d39b" stroke="#c68a2f" stroke-width="3"/>
      </g>
      <g transform="translate(118,56)">
        <circle cx="36" cy="36" r="30" fill="#eef3fc" stroke="#4e67a0" stroke-width="3"/>
        <path d="M20,36 q8,-18 18,0 q10,18 18,0" fill="none" stroke="#b7c8ee" stroke-width="8" stroke-linecap="round"/>
      </g>
    </g>
    
<text x="1293.5" y="728" text-anchor="middle" class="bodytxt" font-size="31">Novel Proteins</text>
<g filter="url(#softShadow)">
<rect x="1103" y="774" width="381" height="180" rx="18" ry="18" fill="#f7f7f8" stroke="#d1d7e1"/>
<path d="M1121,774 H1466 Q1484,774 1484,792 V825 H1103 V792 Q1103,774 1121,774 Z" fill="url(#blueHead)" stroke="none"/>
</g>
<text x="1293.5" y="812" text-anchor="middle" class="headtxt" font-size="36">Materials Science</text>

    <g transform="translate(1155,832) scale(0.95)">
      <ellipse cx="136" cy="90" rx="120" ry="20" fill="#e0e7f3"/>
      <g transform="translate(10,10)">
      <g class="navy med">
        <line x1="16" y1="40" x2="54" y2="26"/><line x1="54" y1="26" x2="92" y2="43"/><line x1="92" y1="43" x2="92" y2="82"/>
        <line x1="54" y1="26" x2="54" y2="68"/><line x1="16" y1="40" x2="16" y2="80"/><line x1="16" y1="80" x2="54" y2="97"/><line x1="54" y1="97" x2="92" y2="82"/>
        <line x1="54" y1="68" x2="16" y2="80"/><line x1="54" y1="68" x2="92" y2="82"/>
      </g>
      <circle cx="16" cy="40" r="11" fill="#d2b2dc" stroke="#7a4c96" stroke-width="2"/>
      <circle cx="54" cy="26" r="11" fill="#add1ad" stroke="#4d8c67" stroke-width="2"/>
      <circle cx="92" cy="43" r="11" fill="#cfdaf7" stroke="#4e67a0" stroke-width="2"/>
      <circle cx="16" cy="80" r="13" fill="#a9c5f0" stroke="#4e67a0" stroke-width="2"/>
      <circle cx="54" cy="68" r="11" fill="#d8e3ff" stroke="#4e67a0" stroke-width="2"/>
      <circle cx="54" cy="97" r="11" fill="#b9caef" stroke="#4e67a0" stroke-width="2"/>
      <circle cx="92" cy="82" r="13" fill="#d2b2dc" stroke="#7a4c96" stroke-width="2"/>
      </g>
      <g transform="translate(150,8)">
       <path d="M28,0 h38 M47,0 v18 l24,53 q7,18 -11,18 h-50 q-18,0 -11,-18 l24,-53 v-18" fill="none" stroke="#4e67a0" stroke-width="4" stroke-linecap="round" stroke-linejoin="round"/>
       <path d="M23,56 h48 l-7,15 h-34z" fill="#9fb3e8" opacity="0.85"/>
       <circle cx="38" cy="65" r="4" fill="#eef4fc"/><circle cx="56" cy="63" r="4" fill="#eef4fc"/>
      </g>
    </g>
    
<text x="1293.5" y="930" text-anchor="middle" class="bodytxt" font-size="31">Advanced Materials</text>
<circle cx="769" cy="499" r="286" fill="none" stroke="#d4d8df" stroke-width="1.2"/>
<path d="M530.0,361.0 A276,276 0 0 1 907.0,260.0 L866.0,331.0 A194,194 0 0 0 601.0,402.0 Z" fill="url(#ringGreen)" stroke="#f6f6f7" stroke-width="8"/>
<path d="M915.3,264.9 A276,276 0 0 1 1044.6,484.6 L962.7,488.8 A194,194 0 0 0 871.8,334.5 Z" fill="url(#ringOrange)" stroke="#f6f6f7" stroke-width="8"/>
<path d="M1045.0,494.2 A276,276 0 0 1 872.4,754.9 L841.7,678.9 A194,194 0 0 0 963.0,495.6 Z" fill="url(#ringRed)" stroke="#f6f6f7" stroke-width="8"/>
<path d="M858.9,760.0 A276,276 0 0 1 540.2,344.7 L608.2,390.5 A194,194 0 0 0 832.2,682.4 Z" fill="url(#ringPurple)" stroke="#f6f6f7" stroke-width="8"/>
<g fill="#f6f6f7" stroke="#f6f6f7">
  <path d="M753,787 l40,-32 l-5,45 z"/>
  <path d="M497,361 l31,11 l-13,24 z"/>
  <path d="M1020,449 l7,-38 l12,0 l5,39 z" rx="3"/>
  <path d="M1022,496 l15,12 l-4,15 l-16,-8 z"/>
  <path d="M510,528 l20,3 l-10,13 z"/>
</g>
<circle cx="769" cy="499" r="198" fill="#f8f8f8"/>

<g id="centerAgent" transform="translate(672,342)">
  <g class="navy med">
   <path d="M36,204 q7,-39 42,-45 q17,-3 33,-16 q16,13 33,16 q35,6 42,45" />
   <path d="M80,156 q0,28 36,28 q36,0 36,-28" />
   <path d="M63,26 q-31,18 -31,51 v28 q0,23 18,34 q9,6 19,8" />
   <path d="M169,26 q31,18 31,51 v28 q0,23 -18,34 q-9,6 -19,8" />
   <rect x="20" y="70" width="22" height="52" rx="11" fill="#dfe6f8"/>
   <rect x="190" y="70" width="22" height="52" rx="11" fill="#dfe6f8"/>
   <path d="M56,79 q0,-41 29,-58 q15,-9 31,-9 q16,0 31,9 q29,17 29,58 v22 q0,33 -21,53 q-21,20 -39,20 q-18,0 -39,-20 q-21,-20 -21,-53 z" fill="#f5f5f5"/>
   <circle cx="88" cy="110" r="11" fill="#9eb2e3"/>
   <circle cx="145" cy="110" r="11" fill="#9eb2e3"/>
   <path d="M102,143 q14,8 28,0" />
   <path d="M108,184 v31" /><path d="M124,184 v31" />
   <path d="M48,35 q18,-18 68,-18 q50,0 68,18" fill="none"/>
  </g>
  <g transform="translate(82,47)">
   <circle cx="34" cy="20" r="13" fill="#f0b24d"/>
   <g fill="none" stroke="#f0b24d" stroke-width="5" stroke-linecap="round">
     <path d="M34,-2 v11"/><path d="M34,31 v11"/><path d="M12,20 h11"/><path d="M45,20 h11"/>
     <path d="M18,5 l8,8"/><path d="M42,29 l8,8"/><path d="M18,35 l8,-8"/><path d="M42,11 l8,-8"/>
   </g>
   <circle cx="34" cy="20" r="6" fill="#f8f8f8"/>
  </g>
</g>
<text x="769" y="583" text-anchor="middle" class="title" font-size="61" font-weight="600">AI AGENT</text>
<text x="769" y="637" text-anchor="middle" class="title" font-size="41">DMTA LOOP</text>

<text x="656" y="319" transform="rotate(-28 656 319)" class="headtxt" font-size="36">Design</text>
<text x="840" y="300" transform="rotate(24 840 300)" class="headtxt" font-size="36">Make</text>
<text x="970" y="631" transform="rotate(63 970 631)" class="headtxt" font-size="36">Test</text>
<text x="547" y="663" transform="rotate(116 547 663)" class="headtxt" font-size="36">Analyze</text>
</svg>